<svg xmlns="http://www.w3.org/2000/svg" width="535" height="535" viewBox="0 33.438 501.563 434.687">
  <defs>
    <linearGradient id="a">
      <stop offset="0" stop-color="#00445e" stop-opacity="0"/>
      <stop offset=".232" stop-color="#5cd2cf"/>
      <stop offset="1" stop-color="#00445e"/>
    </linearGradient>
    <linearGradient id="c" x1="-584.19934" x2="-414.38654" y1="782.33563" y2="880.37714" gradientTransform="translate(864.69589 -1491.3405)" gradientUnits="userSpaceOnUse" href="#a"/>
    <linearGradient id="b" x1="200.59668" x2="389.57562" y1="351.41116" y2="460.51822" gradientTransform="translate(210.82018 -765.27605)" gradientUnits="userSpaceOnUse" href="#a"/>
    <radialGradient id="d" cx="15.594" cy="5.99" r="14.032" gradientTransform="matrix(-.028956 26.455917 -11.315404 -.012379 318.056885 -267.867569)" gradientUnits="userSpaceOnUse">
      <stop offset="0" stop-color="#5cd2cf"/>
      <stop offset="1" stop-color="#00445e"/>
    </radialGradient>
  </defs>
  <g fill-rule="evenodd" stroke-width="11.0512">
    <path fill="url(#b)" d="m534.803-272.369 37.113 63.531-56.157.527-32.624-56.869-32.857 56.565-27.902-.011-14.291-24.69 42.629-72.273c24.978 23.451 52.924 33.946 84.089 33.22Z" transform="rotate(-60 984.91434516 169.40157592) scale(.99967761)"/>
    <path fill="url(#c)" d="m394.582-561.581 37.164 62.868-56.157.527-32.624-56.87-32.856 56.566-27.903-.011-14.291-24.69 42.173-73.146c22.21 22.145 51.707 32.599 84.494 34.756Z" color="#000" overflow="visible" style="isolation:auto;mix-blend-mode:normal;solid-color:#000;solid-opacity:1" transform="translate(-156.43327327 966.30700848) scale(.99967761)"/>
    <path fill="url(#b)" d="m534.103-271.375 37.813 62.537-56.157.527-32.624-56.869-32.857 56.565-27.902-.011-14.291-24.69 42.366-72.791c24.01 21.165 62.493 33.838 83.652 34.732Z" transform="rotate(60 -187.06217299 -344.33886949) scale(.99967761)"/>
    <path fill="url(#b)" d="m534.365-272.479 37.551 63.641-56.157.527-32.624-56.869-32.857 56.565-27.902-.011-14.291-24.69 42.559-73.146c16.882 18.382 53.716 33.497 83.721 33.983Z" transform="rotate(180 399.13302205 -87.48143916) scale(.99967761)"/>
    <path fill="url(#c)" d="m395.496-562.296 36.25 63.583-56.157.527-32.624-56.87-32.856 56.566-27.903-.011-14.291-24.69 42.912-73.329c25.866 24.287 55.383 33.34 84.669 34.224Z" color="#000" overflow="visible" style="isolation:auto;mix-blend-mode:normal;solid-color:#000;solid-opacity:1" transform="rotate(120 50.04240792 -277.85759093) scale(.99967761)"/>
    <path fill="url(#c)" d="m393.702-563.169 38.044 64.456-56.157.527-32.624-56.87-32.856 56.566-27.903-.011-14.291-24.69 42.366-72.791c27.77 22.554 58.404 31.956 83.421 32.813Z" color="#000" overflow="visible" style="isolation:auto;mix-blend-mode:normal;solid-color:#000;solid-opacity:1" transform="rotate(-120 607.88910197 -187.32724432) scale(.99967761)"/>
  </g>
  <path fill="url(#d)" fill-rule="evenodd" d="M74.818 253.378Zm308.56-51.678c-.543-1.471-1.584-2.693-2.942-3.474l-.034-.011c-1.346-.769-2.931-1.041-4.469-.769-1.539.294-2.931 1.109-3.927 2.297-.996 1.199-1.539 2.727-1.539 4.288.012.804.147 1.573.419 2.343 5.499 14.664 8.283 30.042 8.271 45.725 0 31.717-11.496 62.246-32.384 85.952-20.47 23.253-48.487 38.337-78.982 42.603v-59.146c3.101-.645 6.178-1.46 9.188-2.478v51.191l1.211-.294c25.89-6.314 49.347-21.341 66.037-42.354 17.211-21.646 26.308-47.751 26.308-75.474.034-21.658-5.748-42.964-16.701-61.612-10.954-18.671-26.739-34.071-45.635-44.549-.804-.43-1.653-.69-2.558-.781-.905-.09-1.788.012-2.648.283-.871.272-1.652.713-2.331 1.301-.69.6-1.233 1.313-1.64 2.128-.442.916-.668 1.923-.668 2.942 0 1.188.306 2.353.905 3.372.6 1.018 1.46 1.878 2.501 2.455 16.826 9.324 30.88 23.027 40.645 39.627 9.777 16.599 14.925 35.575 14.925 54.845 0 22.088-6.608 43.327-19.146 61.432-11.949 17.279-28.424 30.552-47.705 38.484v-43.35c3.123-1.097 5.861-3.021 7.988-5.578 2.275-2.75 3.678-6.077 4.096-9.618.408-3.553-.226-7.118-1.81-10.309-1.505-2.998-3.768-5.51-6.597-7.298 2.591-23.785 10.139-28.481 15.661-31.932h.011c3.293-2.048 6.133-3.814 6.133-8.951v-7.321c0-7.592-7.525-25.29-24.317-47.728-23.253-31.061-36.515-34.309-40-34.558-1.301-.135-2.433-.079-3.689-.011l-.124.011c-3.519.249-16.77 3.497-40.057 34.558-16.826 22.438-24.351 40.136-24.351 47.728v7.299c0 5.148 2.841 6.913 6.122 8.95 5.533 3.44 13.092 8.136 15.672 31.921-2.535 1.595-4.651 3.802-6.133 6.416-1.584 2.795-2.41 5.974-2.376 9.177 0 7.592 4.979 14.574 12.198 17.233v43.361c-19.282-7.921-35.734-21.194-47.695-38.484-12.526-18.093-19.168-39.344-19.168-61.42 0-39.219 21.318-75.429 55.627-94.484 1.289-.713 2.308-1.844 2.885-3.202.577-1.347.69-2.874.317-4.3-.362-1.414-1.2-2.693-2.354-3.598-1.154-.906-2.591-1.403-4.062-1.403h-.011c-1.109 0-2.207.282-3.157.826-18.908 10.466-34.705 25.867-45.681 44.526-10.976 18.648-16.769 39.966-16.747 61.623 0 27.735 9.109 53.828 26.309 75.474 16.701 21.013 40.158 36.051 66.037 42.365l1.222.294v-51.179c2.998 1.007 6.087 1.844 9.188 2.467v59.145c-30.507-4.266-58.512-19.372-78.993-42.602-20.888-23.717-32.396-54.235-32.396-85.964-.011-15.671 2.783-31.06 8.305-45.714.306-.826.442-1.697.408-2.568-.034-.872-.238-1.72-.6-2.524-.362-.792-.871-1.493-1.516-2.093-.645-.6-1.381-1.064-2.195-1.369-.826-.306-1.686-.442-2.558-.408-.871.023-1.72.238-2.512.6s-1.505.871-2.093 1.516c-.6.645-1.064 1.392-1.369 2.207-7.876 21.114-10.682 44.119-8.125 66.512 2.546 22.393 10.478 44.164 22.903 62.936 12.435 18.784 29.363 34.569 48.95 45.624 19.587 11.066 41.811 17.403 64.272 18.331l1.018.034v-71.966c1.969.09 4.458.147 4.617.147.034-.011.26-.011.611-.023.894-.022 2.557-.056 3.972-.124v71.966l1.007-.034c22.461-.951 44.684-7.31 64.26-18.376 19.587-11.078 36.515-26.852 48.939-45.635 12.424-18.784 20.368-40.532 22.925-62.937 2.58-22.393-.215-45.397-8.068-66.512Zm-159.196 95.638c1.38-2.048 1.991-4.526 1.753-6.97-.226-2.456-1.323-4.764-3.055-6.506-.984-1.008-2.15-1.788-3.451-2.331-1.301-.544-2.67-.815-4.073-.815h-.012c-2.455 0-4.854.86-6.744 2.421-1.901 1.562-3.213 3.757-3.689 6.179-.486 2.41-.113 4.944 1.041 7.117 1.155 2.161 3.044 3.881 5.319 4.832 2.263.939 4.809 1.075 7.162.362 2.343-.713 4.402-2.229 5.76-4.277l-.011-.012Zm69.352-10.897c-1.154-2.172-3.033-3.892-5.307-4.831-1.301-.555-2.693-.826-4.096-.826-1.03 0-2.071.147-3.067.452-2.342.702-4.402 2.23-5.771 4.266-1.369 2.037-2.003 4.526-1.765 6.971.238 2.455 1.313 4.752 3.044 6.506.996.996 2.15 1.788 3.451 2.331 1.313.543 2.682.815 4.085.815h.011c2.456 0 4.843-.849 6.744-2.411 1.901-1.561 3.214-3.756 3.7-6.166.476-2.411.114-4.945-1.041-7.118l.012.011Z" clip-rule="evenodd" paint-order="stroke" vector-effect="non-scaling-stroke"/>
</svg>
